<svg xmlns="http://www.w3.org/2000/svg" width="21" height="15" viewBox="0 0 21 15"><g><g><path fill="#8c8c8c" d="M.968 10.942s2.64.931 3.735.931c0 0 1.465.592 2.469-.991 0 0 .34-.493-.12-.733 0 0-4.185-.492-3.866-1.27 0 0-.02-.438.558-.338 0 0 .807-1.568.488-1.767 0 0-.498-.44-.1-.479 0 0 1.173.159 1.552.259 0 0 .26-.094.02-.273-.24-.18-.638-.584-.558-.663 0 0 .14-.339.777-.06 0 0 .356-.384.176-.583 0 0-.538-.319-.279-.578 0 0 1.216-1.527 2.57.882 0 0 .338.458.378.02 0 0 1.657-4.716 3.83-5.095 0 0 .697.14.837-.08 0 0 .604-.239.803-.04 0 0 .2.3.439.12 0 0 .857-.339.598.22 0 0-.82.905-1.12.925-.299.02-.239.424.02.464 0 0 3.586.258 3.586 2.93 0 0 .21.634.887-.024 0 0 1.026-.652 1.285-.684 0 0 .28-.179.24.24 0 0-.738 1.277-1.495 1.635 0 0-.459.578.2.459 0 0 .64-.132.938-.312 0 0 .777-.379.419.3 0 0-1.637 1.061-1.996 1.061 0 0-.24.06-.24.28 0 0-.218 7.276-9.349 7.276 0 0-4.572-.005-7.562-3.514 0 0-.578-.618-.12-.518z"/></g></g></svg>