<svg xmlns="http://www.w3.org/2000/svg" width="16" height="16" viewBox="0 0 16 16"><g><g><path fill="#8c8c8c" d="M7.969 16c-4.394 0-7.97-3.575-7.97-7.969S3.576.062 7.97.062s7.969 3.575 7.969 7.97c0 4.393-3.575 7.968-7.97 7.968zm6.845-6.94c-.233-.074-2.232-.57-4.365-.229.89 2.446 1.253 4.44 1.323 4.853 1.527-1.032 2.739-2.73 3.042-4.624zm-4.155 5.31c-.101-.597-.528-2.741-1.484-5.224l-.044.015c-3.84 1.338-5.218 4.031-5.34 4.282 1.154.9 2.604 1.53 4.178 1.53.943 0 1.873-.255 2.69-.603zm-7.747-1.715c.154-.264 2.022-3.42 5.533-4.554.088-.029.178-.055.268-.08-.171-.388-.357-.775-.552-1.156-3.4 1.017-6.854 1.1-7.152 1.094a6.586 6.586 0 0 0-.003.208c0 1.748.819 3.282 1.906 4.488zM1.056 6.648c.304.004 3.358.016 6.542-.83A49.159 49.159 0 0 0 5.075 1.82c-1.967.773-3.578 2.716-4.02 4.829zM6.31 1.33c.188.252 1.487 2.03 2.602 4.079 2.42-.907 3.508-2.44 3.63-2.615C11.341 1.727 9.698.984 7.97.984c-.55 0-1.146.223-1.658.346zm6.927 2.376c-.144.194-1.285 1.687-3.801 2.715a21.017 21.017 0 0 1 .598 1.337c2.265-.285 4.671.172 4.896.22-.015-1.607-.745-3.114-1.693-4.272z"/></g></g></svg>